<?xml version="1.0" encoding="utf-8"?>
<!-- Generator: Adobe Illustrator 27.6.1, SVG Export Plug-In . SVG Version: 6.00 Build 0)  -->
<svg version="1.1" id="Layer_1" xmlns="http://www.w3.org/2000/svg" xmlns:xlink="http://www.w3.org/1999/xlink" x="0px" y="0px"
	 viewBox="0 0 2000 600" style="enable-background:new 0 0 2000 600;" xml:space="preserve">
<style type="text/css">
	.st0{fill:#FFFFFF;}
	.st1{fill:#4BEF8F;}
</style>
<path class="st0" d="M176.88,141.52h50.85l33.81,123.86h0.85l30.96-123.86h50l30.68,123.57h0.85l34.09-123.57h50.57l-63.35,201.7
	h-43.46L319.2,210.84h-0.57l-34.94,132.38h-43.46L176.88,141.52z"/>
<path class="st0" d="M465.94,325.89c-12.31-13.26-18.47-30.59-18.47-51.99c0-21.02,6.01-38.3,18.04-51.84
	c12.03-13.54,27.13-20.31,45.31-20.31c15.72,0,28.5,5.78,38.35,17.33l0.57-0.28V204.3h44.6v138.91h-42.33v-14.49l-0.57-0.29
	c-9.09,11.55-21.87,17.33-38.35,17.33C493.96,345.78,478.25,339.15,465.94,325.89z M543.21,297.48c5.68-6.06,8.52-13.92,8.52-23.58
	c0-9.47-2.79-17.33-8.38-23.58c-5.59-6.25-12.55-9.37-20.88-9.37c-8.71,0-15.86,3.03-21.45,9.09c-5.59,6.06-8.38,14.01-8.38,23.86
	c0,9.85,2.75,17.76,8.24,23.72c5.49,5.97,12.69,8.95,21.59,8.95C530.61,306.57,537.52,303.54,543.21,297.48z"/>
<path class="st0" d="M639.51,333.99c-7.39-7.86-11.08-19.36-11.08-34.51V240.1h-15.62V204.3h15.62v-44.6l44.6-4.54v49.15h33.52
	v35.79h-33.52v51.13c0,10.42,3.5,15.62,10.51,15.62c4.74,0,9.28-1.04,13.64-3.13l11.08,32.67c-11.17,6.25-24.15,9.37-38.92,9.37
	C656.84,345.78,646.9,341.85,639.51,333.99z"/>
<path class="st0" d="M854.85,285.55h-94.6c1.33,7.76,5.02,13.73,11.08,17.9c6.06,4.17,13.45,6.25,22.16,6.25
	c12.88-0.38,23.67-5.4,32.39-15.06l25.57,26.14c-13.45,16.67-34.28,25-62.5,25c-21.21,0-38.63-6.67-52.27-20.03
	c-13.64-13.35-20.45-30.73-20.45-52.13c0-21.02,6.68-38.26,20.03-51.7c13.35-13.45,30.54-20.17,51.56-20.17
	c19.7,0,35.94,6.63,48.72,19.89c12.78,13.26,19.18,30.11,19.18,50.57C855.71,275.42,855.42,279.87,854.85,285.55z M769.77,242.8
	c-4.83,3.88-7.91,9.33-9.23,16.33h51.99c-1.52-6.82-4.45-12.22-8.81-16.19c-4.36-3.98-9.85-5.97-16.48-5.97
	C780.42,236.97,774.6,238.91,769.77,242.8z"/>
<path class="st0" d="M879.29,204.3h44.32v19.32h0.57c10.42-14.58,23.77-21.87,40.06-21.87h1.7v48.01
	c-5.68-0.38-9.18-0.57-10.51-0.57c-10.23,0-18.09,2.89-23.58,8.66c-5.49,5.78-8.24,13.4-8.24,22.87v62.5h-44.32V204.3z"/>
<path class="st0" d="M988.09,141.52h48.58v159.37h83.81v42.33H988.09V141.52z"/>
<path class="st0" d="M1220.19,204.3h44.32v16.19h0.57c10.8-12.5,24.71-18.75,41.76-18.75c33.14,0,49.72,19.41,49.72,58.24v83.23
	h-44.32v-72.44c0-10.98-1.8-18.65-5.4-23.01c-3.6-4.36-9.19-6.53-16.76-6.53c-7.95,0-14.2,2.7-18.75,8.1
	c-4.54,5.4-6.82,13.4-6.82,24v69.88h-44.32V204.3z"/>
<path class="st0" d="M1381.69,134.14h43.75V254.3h0.57l40.62-50h51.42l-46.87,55.4l48.29,83.52h-49.15l-30.97-54.54l-13.92,15.34
	v39.2h-43.75V134.14z"/>
<path class="st0" d="M1658.67,285.55h-94.6c1.33,7.76,5.02,13.73,11.08,17.9c6.06,4.17,13.44,6.25,22.16,6.25
	c12.88-0.38,23.67-5.4,32.38-15.06l25.57,26.14c-13.45,16.67-34.28,25-62.5,25c-21.21,0-38.63-6.67-52.27-20.03
	c-13.64-13.35-20.45-30.73-20.45-52.13c0-21.02,6.67-38.26,20.03-51.7c13.35-13.45,30.54-20.17,51.56-20.17
	c19.7,0,35.94,6.63,48.72,19.89c12.78,13.26,19.18,30.11,19.18,50.57C1659.53,275.42,1659.24,279.87,1658.67,285.55z M1573.59,242.8
	c-4.83,3.88-7.91,9.33-9.23,16.33h51.99c-1.51-6.82-4.45-12.22-8.81-16.19c-4.36-3.98-9.85-5.97-16.48-5.97
	C1584.24,236.97,1578.42,238.91,1573.59,242.8z"/>
<path class="st0" d="M1693.44,325.89c-12.22-13.26-18.32-30.59-18.32-51.99c0-21.02,6.01-38.3,18.04-51.84
	c12.03-13.54,27.13-20.31,45.31-20.31c16.48,0,29.73,5.78,39.77,17.33h0.29v-84.94h44.6v209.08h-42.33v-14.77h-0.57
	c-9.28,11.55-22.44,17.33-39.49,17.33C1721.42,345.78,1705.65,339.15,1693.44,325.89z M1771.56,297.62
	c5.78-5.97,8.67-13.87,8.67-23.72c0-9.47-2.84-17.33-8.52-23.58c-5.68-6.25-12.97-9.37-21.87-9.37c-8.52,0-15.62,3.03-21.31,9.09
	c-5.68,6.06-8.52,14.01-8.52,23.86c0,9.66,2.79,17.52,8.38,23.58c5.59,6.06,12.74,9.09,21.45,9.09
	C1758.54,306.57,1765.78,303.59,1771.56,297.62z"/>
<circle class="st1" cx="1166.42" cy="161.04" r="26.9"/>
<circle class="st1" cx="1166.42" cy="316.32" r="26.9"/>
<g>
	<path class="st0" d="M1166.42,217.54c11.65,0,21.14,9.48,21.14,21.14c0,11.65-9.48,21.14-21.14,21.14s-21.14-9.48-21.14-21.14
		C1145.28,227.02,1154.76,217.54,1166.42,217.54 M1166.42,211.78c-14.86,0-26.9,12.04-26.9,26.9c0,14.86,12.04,26.9,26.9,26.9
		s26.9-12.04,26.9-26.9C1193.32,223.82,1181.28,211.78,1166.42,211.78z"/>
</g>
<g>
	<path class="st0" d="M797.4,399.61h16.82c9.42,0,13.56,4.86,13.56,13.19c0,9.06-4.57,15.66-12.97,17.69l9.93,20.59h-6.96
		l-9.21-19.72h-8.92l-2.39,19.72h-6.16L797.4,399.61z M809.37,425.71c7.47,0,12.03-4.93,12.03-12.9c0-5-3.55-7.61-8.48-7.61h-10
		l-2.54,20.51H809.37z"/>
	<path class="st0" d="M856.48,441.8l4.57,3.26c-3.77,4.06-7.68,6.45-13.84,6.45c-8.55,0-14.06-5.51-14.06-14.64
		c0-11.53,7.03-21.53,18.41-21.53c5,0,10.87,2.68,10.87,9.21c0,9.21-12.61,12.32-23.56,13.34c0.36,5.44,4.06,8.34,8.55,8.34
		C851.04,446.22,853.79,444.7,856.48,441.8z M839.08,433.1c8.19-0.73,17.47-2.68,17.47-8.26c0-3.19-2.75-4.2-5.29-4.2
		C845.82,420.63,840.38,425.05,839.08,433.1z"/>
	<path class="st0" d="M867.34,437.3c0-11.31,6.89-21.96,17.69-21.96c3.7,0,7.61,1.16,10.22,3.84l0.15-0.07l2.61-21.38h5.8
		l-6.6,53.35h-5.73l1.01-8.19l-0.22-0.07c-3.19,5.44-7.68,8.7-12.83,8.7C871.33,451.51,867.34,445.2,867.34,437.3z M894.24,428.17
		l0.51-3.62c-2.25-2.97-6.38-3.84-9.35-3.84c-7.54,0-12.25,8.34-12.25,16.74c0,5.29,2.54,8.92,7.32,8.92
		C886.92,446.36,892.93,438.54,894.24,428.17z"/>
	<path class="st0" d="M931.42,441.8l4.57,3.26c-3.77,4.06-7.68,6.45-13.84,6.45c-8.55,0-14.06-5.51-14.06-14.64
		c0-11.53,7.03-21.53,18.41-21.53c5,0,10.87,2.68,10.87,9.21c0,9.21-12.61,12.32-23.56,13.34c0.36,5.44,4.06,8.34,8.55,8.34
		C925.98,446.22,928.74,444.7,931.42,441.8z M914.02,433.1c8.19-0.73,17.47-2.68,17.47-8.26c0-3.19-2.75-4.2-5.29-4.2
		C920.76,420.63,915.33,425.05,914.02,433.1z"/>
	<path class="st0" d="M946.13,420.78h-3.7l0.58-5h3.77l0.94-7.61c0.87-7.47,4.42-10.95,9.93-10.95c2.75,0,5.07,0.58,7.39,2.17
		l-1.6,4.93c-1.59-1.16-3.41-1.74-5-1.74c-2.46,0-4.49,1.3-5.15,6.74l-0.73,6.45h8.41l-0.58,5h-8.55l-3.7,30.3h-5.73L946.13,420.78z
		"/>
	<path class="st0" d="M968.23,415.78h5.8l-4.35,35.3h-5.8L968.23,415.78z M968.52,405.19c0-2.39,1.81-4.2,4.2-4.2
		c2.32,0,4.06,1.74,4.06,4.06c0,2.39-1.81,4.2-4.2,4.2C970.26,409.25,968.52,407.51,968.52,405.19z"/>
	<path class="st0" d="M985.41,415.78h5.73l-0.94,7.97l0.14,0.07c3.62-5.36,8.7-8.48,13.92-8.48c7.18,0,10,4.64,8.7,14.5l-2.83,21.24
		h-5.73l2.76-20.8c0.94-6.89-0.73-9.64-4.71-9.64c-5.44,0-12.76,7.1-13.92,16.53l-1.74,13.92h-5.73L985.41,415.78z"/>
	<path class="st0" d="M1025.34,415.78h5.8l-4.35,35.3h-5.8L1025.34,415.78z M1025.63,405.19c0-2.39,1.81-4.2,4.2-4.2
		c2.32,0,4.06,1.74,4.06,4.06c0,2.39-1.81,4.2-4.2,4.2C1027.37,409.25,1025.63,407.51,1025.63,405.19z"/>
	<path class="st0" d="M1042.52,415.78h5.73l-0.94,7.97l0.14,0.07c3.62-5.36,8.7-8.48,13.92-8.48c7.18,0,10,4.64,8.7,14.5
		l-2.83,21.24h-5.73l2.76-20.8c0.94-6.89-0.73-9.64-4.71-9.64c-5.44,0-12.76,7.1-13.92,16.53l-1.74,13.92h-5.73L1042.52,415.78z"/>
	<path class="st0" d="M1076.59,462.67l1.88-5.07c3.34,2.03,6.67,2.97,10.08,2.97c6.96,0,12.03-2.46,13.56-14.5l0.58-4.42l-0.14-0.07
		c-3.26,5.36-7.83,8.84-12.83,8.84c-8.12,0-12.11-6.31-12.11-14.21c0-10.29,6.88-20.88,17.69-20.88c3.84,0,7.68,1.3,10.08,3.77
		l0.07-0.07l0.43-3.26h5.73l-3.77,30.73c-1.96,15.8-9.93,19.35-19.57,19.35C1084.12,465.86,1080.21,464.85,1076.59,462.67z
		 M1104.13,429.04l0.58-4.49c-2.32-2.75-6.38-3.84-9.06-3.84c-7.61,0-12.25,8.26-12.25,15.59c0,5.29,2.61,8.92,7.32,8.92
		C1096.74,445.2,1102.9,437.96,1104.13,429.04z"/>
	<path class="st0" d="M1134.56,437.3l2.97-21.53h5.73l-2.83,21.02c-0.94,7.32,1.23,9.42,5.15,9.42c4.86,0,11.6-6.45,12.68-15
		l1.89-15.44h5.8l-4.35,35.3h-5.73l0.94-7.97h-0.14c-2.83,5-7.39,8.41-12.76,8.41C1136.74,451.51,1133.19,447.45,1134.56,437.3z"/>
	<path class="st0" d="M1176.68,415.78h5.73l-0.94,7.97l0.14,0.07c3.62-5.36,8.7-8.48,13.92-8.48c7.18,0,10,4.64,8.7,14.5
		l-2.83,21.24h-5.73l2.76-20.8c0.94-6.89-0.73-9.64-4.71-9.64c-5.44,0-12.76,7.1-13.92,16.53l-1.74,13.92h-5.73L1176.68,415.78z"/>
	<path class="st0" d="M1211.75,437.3c0-11.31,6.88-21.96,17.69-21.96c3.7,0,7.61,1.16,10.22,3.84l0.14-0.07l2.61-21.38h5.8
		l-6.6,53.35h-5.73l1.01-8.19l-0.22-0.07c-3.19,5.44-7.68,8.7-12.83,8.7C1215.74,451.51,1211.75,445.2,1211.75,437.3z
		 M1238.65,428.17l0.51-3.62c-2.25-2.97-6.38-3.84-9.35-3.84c-7.54,0-12.25,8.34-12.25,16.74c0,5.29,2.54,8.92,7.32,8.92
		C1231.33,446.36,1237.34,438.54,1238.65,428.17z"/>
	<path class="st0" d="M1275.83,441.8l4.57,3.26c-3.77,4.06-7.68,6.45-13.84,6.45c-8.55,0-14.06-5.51-14.06-14.64
		c0-11.53,7.03-21.53,18.41-21.53c5,0,10.87,2.68,10.87,9.21c0,9.21-12.61,12.32-23.56,13.34c0.36,5.44,4.06,8.34,8.55,8.34
		C1270.39,446.22,1273.15,444.7,1275.83,441.8z M1258.43,433.1c8.19-0.73,17.47-2.68,17.47-8.26c0-3.19-2.75-4.2-5.29-4.2
		C1265.17,420.63,1259.74,425.05,1258.43,433.1z"/>
	<path class="st0" d="M1291.41,415.78h5.73l-1.01,7.9h0.14c3.12-4.93,7.25-7.76,11.96-8.34l-0.73,6.74
		c-7.18-0.36-11.89,6.02-12.97,15l-1.74,13.99h-5.8L1291.41,415.78z"/>
	<path class="st0" d="M1311.7,436.72l2.75-20.95h5.73l-2.61,20.59c-1.01,7.76,1.3,9.86,4.78,9.86c3.48,0,9.71-4.49,11.02-15.08
		l1.88-15.37h5.8l-2.61,20.8c-0.94,7.54,1.16,9.64,4.42,9.64c4.06,0,9.93-5,11.96-15c1.01-4.93,1.01-10.22,0.22-15.44h5.87
		c0.87,5.29,0.87,11.53-0.36,17.11c-2.9,13.19-11.16,18.63-18.27,18.63c-5.65,0-9.06-3.26-9.42-8.41h-0.14
		c-2.68,5.22-8.48,8.41-12.25,8.41C1313.73,451.51,1310.32,447.02,1311.7,436.72z"/>
	<path class="st0" d="M1366.64,437.3c0-11.38,6.96-21.96,17.69-21.96c3.84,0,7.68,1.3,10,3.77l0.14-0.07l0.44-3.19h5.73l-4.35,35.23
		h-5.73l1.01-8.05l-0.22-0.07c-3.19,5.37-7.76,8.55-12.61,8.55C1370.62,451.51,1366.64,445.2,1366.64,437.3z M1393.38,428.17
		l0.44-3.62c-2.32-2.75-6.38-3.84-9.13-3.84c-7.54,0-12.25,8.26-12.25,16.74c0,5.29,2.61,8.92,7.39,8.92
		C1386.06,446.36,1392.08,438.54,1393.38,428.17z"/>
	<path class="st0" d="M1408.31,441.44l2.54-20.66h-3.91l0.51-5h3.99l1.52-11.6l5.8-1.09l-1.52,12.68h9.93l-0.51,5h-10l-2.46,19.72
		c-0.44,3.55,0.36,5.51,2.97,5.51c1.74,0,3.77-0.72,5.8-2.1l0.8,5.15c-2.46,1.59-5.65,2.46-8.48,2.46
		C1409.54,451.51,1407.59,447.45,1408.31,441.44z"/>
	<path class="st0" d="M1452.6,441.8l4.57,3.26c-3.77,4.06-7.68,6.45-13.84,6.45c-8.55,0-14.06-5.51-14.06-14.64
		c0-11.53,7.03-21.53,18.41-21.53c5,0,10.87,2.68,10.87,9.21c0,9.21-12.61,12.32-23.56,13.34c0.36,5.44,4.06,8.34,8.55,8.34
		C1447.16,446.22,1449.92,444.7,1452.6,441.8z M1435.2,433.1c8.19-0.73,17.47-2.68,17.47-8.26c0-3.19-2.75-4.2-5.29-4.2
		C1441.95,420.63,1436.51,425.05,1435.2,433.1z"/>
	<path class="st0" d="M1468.18,415.78h5.73l-1.01,7.9h0.14c3.12-4.93,7.25-7.76,11.96-8.34l-0.73,6.74
		c-7.18-0.36-11.89,6.02-12.97,15l-1.74,13.99h-5.8L1468.18,415.78z"/>
	<path class="st0" d="M1507.39,415.78h5.73l-1.01,8.19l0.14,0.07c3.19-5.29,7.54-8.7,13.34-8.7c7.76,0,11.74,6.52,11.74,14.28
		c0,11.31-6.96,21.89-17.9,21.89c-3.84,0-7.68-1.09-10.08-3.55l-0.14,0.07l-2.18,17.4h-5.73L1507.39,415.78z M1531.53,429.98
		c0-5.15-2.39-9.42-7.18-9.42c-6.6,0-12.68,7.83-13.99,17.83l-0.51,3.84c1.81,3.04,5.51,4.06,8.26,4.06
		C1526.45,446.29,1531.53,438.46,1531.53,429.98z"/>
	<path class="st0" d="M1566.82,441.8l4.57,3.26c-3.77,4.06-7.68,6.45-13.84,6.45c-8.55,0-14.06-5.51-14.06-14.64
		c0-11.53,7.03-21.53,18.41-21.53c5,0,10.87,2.68,10.87,9.21c0,9.21-12.61,12.32-23.56,13.34c0.36,5.44,4.06,8.34,8.55,8.34
		C1561.39,446.22,1564.14,444.7,1566.82,441.8z M1549.43,433.1c8.19-0.73,17.47-2.68,17.47-8.26c0-3.19-2.75-4.2-5.29-4.2
		C1556.17,420.63,1550.73,425.05,1549.43,433.1z"/>
	<path class="st0" d="M1582.4,415.78h5.73l-1.01,7.9h0.14c3.12-4.93,7.25-7.76,11.96-8.34l-0.73,6.74
		c-7.18-0.36-11.89,6.02-12.97,15l-1.74,13.99h-5.8L1582.4,415.78z"/>
	<path class="st0" d="M1600.23,436.72c0-11.45,6.96-21.38,18.63-21.38c5,0,9.64,1.96,12.32,5.87l-4.57,3.41
		c-1.81-2.68-4.71-3.91-7.9-3.91c-7.68,0-12.61,7.1-12.61,15.66c0,6.52,3.84,9.86,8.48,9.86c3.41,0,6.74-1.38,9.5-4.42l4.49,3.26
		c-3.77,4.13-8.12,6.45-14.35,6.45C1606.18,451.51,1600.23,446.51,1600.23,436.72z"/>
	<path class="st0" d="M1658.73,441.8l4.57,3.26c-3.77,4.06-7.68,6.45-13.84,6.45c-8.55,0-14.06-5.51-14.06-14.64
		c0-11.53,7.03-21.53,18.41-21.53c5,0,10.87,2.68,10.87,9.21c0,9.21-12.61,12.32-23.56,13.34c0.36,5.44,4.06,8.34,8.55,8.34
		C1653.29,446.22,1656.04,444.7,1658.73,441.8z M1641.33,433.1c8.19-0.73,17.47-2.68,17.47-8.26c0-3.19-2.75-4.2-5.29-4.2
		C1648.07,420.63,1642.63,425.05,1641.33,433.1z"/>
	<path class="st0" d="M1674.23,415.78h5.73l-1.01,8.19l0.14,0.07c3.19-5.29,7.54-8.7,13.34-8.7c7.76,0,11.74,6.52,11.74,14.28
		c0,11.31-6.96,21.89-17.9,21.89c-3.84,0-7.68-1.09-10.08-3.55l-0.14,0.07l-2.18,17.4h-5.73L1674.23,415.78z M1698.37,429.98
		c0-5.15-2.39-9.42-7.18-9.42c-6.6,0-12.68,7.83-13.99,17.83l-0.51,3.84c1.81,3.04,5.51,4.06,8.26,4.06
		C1693.29,446.29,1698.37,438.46,1698.37,429.98z"/>
	<path class="st0" d="M1711.49,441.44l2.54-20.66h-3.91l0.51-5h3.99l1.52-11.6l5.8-1.09l-1.52,12.68h9.93l-0.51,5h-10l-2.46,19.72
		c-0.44,3.55,0.36,5.51,2.97,5.51c1.74,0,3.77-0.72,5.8-2.1l0.8,5.15c-2.46,1.59-5.65,2.46-8.48,2.46
		C1712.72,451.51,1710.76,447.45,1711.49,441.44z"/>
	<path class="st0" d="M1738.66,415.78h5.8l-4.35,35.3h-5.8L1738.66,415.78z M1738.95,405.19c0-2.39,1.81-4.2,4.2-4.2
		c2.32,0,4.06,1.74,4.06,4.06c0,2.39-1.81,4.2-4.2,4.2C1740.69,409.25,1738.95,407.51,1738.95,405.19z"/>
	<path class="st0" d="M1751.2,436.72c0-11.31,7.03-21.38,18.56-21.38c8.77,0,14.64,5.22,14.64,14.5c0,12.1-6.74,21.67-18.63,21.67
		C1756.93,451.51,1751.2,446.15,1751.2,436.72z M1778.53,430.35c0-7.18-4.49-9.64-9.06-9.64c-7.39,0-12.47,7.18-12.47,15.37
		c0,6.09,3.33,10.15,8.92,10.15C1773.38,446.22,1778.53,439.41,1778.53,430.35z"/>
	<path class="st0" d="M1795.27,415.78h5.73l-0.94,7.97l0.14,0.07c3.62-5.36,8.7-8.48,13.92-8.48c7.18,0,10,4.64,8.7,14.5
		l-2.83,21.24h-5.73l2.76-20.8c0.94-6.89-0.73-9.64-4.71-9.64c-5.44,0-12.76,7.1-13.92,16.53l-1.74,13.92h-5.73L1795.27,415.78z"/>
</g>
</svg>
